<svg xmlns="http://www.w3.org/2000/svg" xmlns:xlink="http://www.w3.org/1999/xlink" width="800" zoomAndPan="magnify" viewBox="0 0 600 599.999999" height="800" preserveAspectRatio="xMidYMid meet" version="1.2"><defs><clipPath id="ba57acb968"><path d="M 109.957031 215.386719 L 123.347656 215.386719 L 123.347656 228.78125 L 109.957031 228.78125 Z M 109.957031 215.386719 "/></clipPath><clipPath id="306e231b8d"><path d="M 481.328125 215.386719 L 494.722656 215.386719 L 494.722656 228.78125 L 481.328125 228.78125 Z M 481.328125 215.386719 "/></clipPath><clipPath id="777f99f824"><path d="M 205.722656 138 L 393 138 L 393 308.265625 L 205.722656 308.265625 Z M 205.722656 138 "/></clipPath><clipPath id="edbb7750fc"><path d="M 271 144 L 393 144 L 393 308.265625 L 271 308.265625 Z M 271 144 "/></clipPath></defs><g id="c3cb5eb22e"><rect x="0" width="600" y="0" height="599.999999" style="fill:#ffffff;fill-opacity:1;stroke:none;"/><rect x="0" width="600" y="0" height="599.999999" style="fill:#ffffff;fill-opacity:1;stroke:none;"/><g clip-rule="nonzero" clip-path="url(#ba57acb968)"><path style=" stroke:none;fill-rule:nonzero;fill:#004aad;fill-opacity:1;" d="M 123.179688 222 C 123.179688 222.433594 123.140625 222.863281 123.054688 223.289062 C 122.96875 223.714844 122.84375 224.128906 122.679688 224.53125 C 122.511719 224.929688 122.308594 225.3125 122.066406 225.671875 C 121.824219 226.035156 121.550781 226.367188 121.246094 226.675781 C 120.9375 226.984375 120.601562 227.257812 120.242188 227.496094 C 119.882812 227.738281 119.5 227.941406 119.097656 228.109375 C 118.699219 228.273438 118.285156 228.402344 117.859375 228.484375 C 117.433594 228.570312 117.003906 228.613281 116.570312 228.613281 C 116.132812 228.613281 115.703125 228.570312 115.277344 228.484375 C 114.851562 228.402344 114.4375 228.273438 114.039062 228.109375 C 113.636719 227.941406 113.253906 227.738281 112.894531 227.496094 C 112.535156 227.257812 112.199219 226.984375 111.890625 226.675781 C 111.585938 226.367188 111.3125 226.035156 111.070312 225.671875 C 110.828125 225.3125 110.625 224.929688 110.460938 224.53125 C 110.292969 224.128906 110.167969 223.714844 110.082031 223.289062 C 109.996094 222.863281 109.957031 222.433594 109.957031 222 C 109.957031 221.566406 109.996094 221.136719 110.082031 220.710938 C 110.167969 220.285156 110.292969 219.871094 110.460938 219.46875 C 110.625 219.066406 110.828125 218.6875 111.070312 218.324219 C 111.3125 217.964844 111.585938 217.628906 111.890625 217.324219 C 112.199219 217.015625 112.535156 216.742188 112.894531 216.5 C 113.253906 216.261719 113.636719 216.054688 114.039062 215.890625 C 114.4375 215.722656 114.851562 215.597656 115.277344 215.515625 C 115.703125 215.429688 116.132812 215.386719 116.570312 215.386719 C 117.003906 215.386719 117.433594 215.429688 117.859375 215.515625 C 118.285156 215.597656 118.699219 215.722656 119.097656 215.890625 C 119.5 216.054688 119.882812 216.261719 120.242188 216.5 C 120.601562 216.742188 120.9375 217.015625 121.246094 217.324219 C 121.550781 217.628906 121.824219 217.964844 122.066406 218.324219 C 122.308594 218.6875 122.511719 219.066406 122.679688 219.46875 C 122.84375 219.871094 122.96875 220.285156 123.054688 220.710938 C 123.140625 221.136719 123.179688 221.566406 123.179688 222 Z M 123.179688 222 "/></g><g style="fill:#004aad;fill-opacity:1;"><g transform="translate(110.990549, 471.03155)"><path style="stroke:none" d="M 51.3125 -12.796875 C 49.570312 -11.316406 47.914062 -9.410156 46.34375 -7.078125 C 44.8125 -4.734375 43.578125 -2.457031 42.640625 -0.25 C 41.203125 -0.488281 40.113281 -0.609375 39.375 -0.609375 C 38.644531 -0.609375 37.5625 -0.488281 36.125 -0.25 C 34.144531 -5.363281 31.703125 -11.453125 28.796875 -18.515625 L 24.875 -28.390625 L 16.75 -47.25 L 16.75 -24.6875 L 16.703125 -18.5625 C 16.703125 -11.570312 16.835938 -7.578125 17.109375 -6.578125 C 17.441406 -5.367188 18.660156 -4.710938 20.765625 -4.609375 L 24.125 -4.46875 C 23.925781 -3.394531 23.828125 -2.59375 23.828125 -2.0625 C 23.828125 -1.519531 23.925781 -0.71875 24.125 0.34375 C 21.28125 0.113281 17.484375 0 12.734375 0 C 7.992188 0 4.203125 0.113281 1.359375 0.34375 C 1.585938 -0.71875 1.703125 -1.519531 1.703125 -2.0625 C 1.703125 -2.59375 1.585938 -3.394531 1.359375 -4.46875 L 4.5625 -4.609375 C 5.769531 -4.679688 6.570312 -4.984375 6.96875 -5.515625 C 7.46875 -6.148438 7.90625 -8.441406 8.28125 -12.390625 C 8.675781 -16.671875 8.976562 -20.195312 9.1875 -22.96875 L 11.28125 -51.5625 C 11.613281 -56.175781 11.78125 -59.238281 11.78125 -60.75 C 11.78125 -62.019531 11.582031 -62.820312 11.1875 -63.15625 C 10.78125 -63.550781 9.8125 -63.835938 8.28125 -64.015625 C 8.28125 -64.015625 7.59375 -64.097656 6.21875 -64.265625 C 5.65625 -64.328125 5.101562 -64.390625 4.5625 -64.453125 C 4.800781 -65.429688 4.921875 -66.148438 4.921875 -66.609375 C 4.921875 -67.117188 4.800781 -67.859375 4.5625 -68.828125 C 7.375 -68.585938 11.285156 -68.46875 16.296875 -68.46875 C 21.285156 -68.46875 25.179688 -68.585938 27.984375 -68.828125 C 28.617188 -66.546875 30.507812 -61.675781 33.65625 -54.21875 L 46.609375 -22.96875 L 51.3125 -34.40625 C 54.59375 -42.269531 58.539062 -53.742188 63.15625 -68.828125 C 66 -68.585938 69.925781 -68.46875 74.9375 -68.46875 C 79.957031 -68.46875 83.875 -68.585938 86.6875 -68.828125 C 86.445312 -67.859375 86.328125 -67.117188 86.328125 -66.609375 C 86.328125 -66.148438 86.445312 -65.429688 86.6875 -64.453125 C 85.507812 -64.328125 84.738281 -64.242188 84.375 -64.203125 C 82.9375 -64.035156 82.035156 -63.785156 81.671875 -63.453125 C 81.203125 -63.148438 80.945312 -62.265625 80.90625 -60.796875 L 80.90625 -49.859375 L 81.21875 -29.140625 C 81.351562 -19.109375 81.769531 -11.867188 82.46875 -7.421875 C 82.695312 -6.148438 83.21875 -5.347656 84.03125 -5.015625 C 84.425781 -4.816406 85.3125 -4.664062 86.6875 -4.5625 L 88.78125 -4.46875 C 88.582031 -3.394531 88.484375 -2.59375 88.484375 -2.0625 C 88.484375 -1.519531 88.582031 -0.71875 88.78125 0.34375 C 84.800781 0.113281 79.453125 0 72.734375 0 C 66.015625 0 60.648438 0.113281 56.640625 0.34375 C 56.867188 -0.71875 56.984375 -1.519531 56.984375 -2.0625 C 56.984375 -2.59375 56.867188 -3.394531 56.640625 -4.46875 L 59.25 -4.5625 C 60.445312 -4.632812 61.25 -4.851562 61.65625 -5.21875 C 61.957031 -5.488281 62.15625 -6.070312 62.25 -6.96875 C 62.382812 -9.582031 62.503906 -12.023438 62.609375 -14.296875 L 62.859375 -25.484375 L 63.15625 -38.875 L 63.15625 -49.359375 L 56.78125 -32.453125 C 54.4375 -26.003906 52.945312 -21.691406 52.3125 -19.515625 C 51.75 -17.578125 51.414062 -15.335938 51.3125 -12.796875 Z M 51.3125 -12.796875 "/></g></g><g style="fill:#004aad;fill-opacity:1;"><g transform="translate(203.085389, 471.03155)"><path style="stroke:none" d="M 40.53125 -24.875 C 38.226562 -25.082031 35.453125 -25.1875 32.203125 -25.1875 C 28.523438 -25.1875 25.382812 -25.082031 22.78125 -24.875 L 20.8125 -18.3125 C 19.039062 -12.289062 18.15625 -8.476562 18.15625 -6.875 C 18.15625 -6.132812 18.539062 -5.597656 19.3125 -5.265625 C 19.71875 -5.128906 21.910156 -4.863281 25.890625 -4.46875 C 25.648438 -3.394531 25.53125 -2.59375 25.53125 -2.0625 C 25.53125 -1.519531 25.648438 -0.71875 25.890625 0.34375 C 22.609375 0.113281 18.242188 0 12.796875 0 C 7.304688 0 2.925781 0.113281 -0.34375 0.34375 C -0.144531 -0.71875 -0.046875 -1.519531 -0.046875 -2.0625 C -0.046875 -2.59375 -0.144531 -3.394531 -0.34375 -4.46875 C 1.6875 -4.695312 3.207031 -4.976562 4.21875 -5.3125 C 5.15625 -5.582031 5.957031 -6.335938 6.625 -7.578125 C 10.332031 -15.671875 13.410156 -23.007812 15.859375 -29.59375 L 19.3125 -39.078125 C 19.882812 -40.546875 20.703125 -42.953125 21.765625 -46.296875 C 22.335938 -48.035156 23.09375 -50.378906 24.03125 -53.328125 C 25.363281 -57.273438 26.03125 -59.796875 26.03125 -60.890625 C 26.03125 -61.023438 26 -61.476562 25.9375 -62.25 C 25.9375 -62.382812 25.921875 -62.550781 25.890625 -62.75 C 28.429688 -63.351562 30.800781 -64.375 33 -65.8125 C 35.25 -67.351562 36.875 -69.039062 37.875 -70.875 C 39.039062 -70.707031 39.925781 -70.625 40.53125 -70.625 C 41.132812 -70.625 42.035156 -70.707031 43.234375 -70.875 C 44.304688 -66.09375 46.234375 -60.023438 49.015625 -52.671875 L 57.03125 -31.796875 C 60.34375 -23.335938 62.734375 -17.085938 64.203125 -13.046875 C 65.742188 -8.898438 66.679688 -6.609375 67.015625 -6.171875 C 67.515625 -5.367188 68.300781 -4.867188 69.375 -4.671875 C 69.8125 -4.566406 70.613281 -4.5 71.78125 -4.46875 C 71.550781 -3.394531 71.4375 -2.59375 71.4375 -2.0625 C 71.4375 -1.519531 71.550781 -0.71875 71.78125 0.34375 C 67.769531 0.113281 62.4375 0 55.78125 0 C 49.125 0 43.789062 0.113281 39.78125 0.34375 C 40.007812 -0.71875 40.125 -1.519531 40.125 -2.0625 C 40.125 -2.59375 40.007812 -3.394531 39.78125 -4.46875 C 42.425781 -4.695312 44.128906 -4.945312 44.890625 -5.21875 C 45.691406 -5.488281 46.09375 -5.988281 46.09375 -6.71875 C 46.09375 -7.757812 45.039062 -11.351562 42.9375 -17.5 Z M 38.671875 -31.15625 L 31.453125 -52.671875 L 24.375 -31.15625 C 27.550781 -31.050781 29.941406 -31 31.546875 -31 C 33.117188 -31 35.492188 -31.050781 38.671875 -31.15625 Z M 38.671875 -31.15625 "/></g></g><g style="fill:#004aad;fill-opacity:1;"><g transform="translate(274.865202, 471.03155)"><path style="stroke:none" d="M 44.25 -35.421875 C 47.21875 -34.316406 49.570312 -33.023438 51.3125 -31.546875 C 53.625 -29.578125 56.015625 -26.398438 58.484375 -22.015625 L 61.796875 -16 C 63.035156 -13.863281 64.257812 -11.738281 65.46875 -9.625 C 67.269531 -6.28125 69.828125 -4.546875 73.140625 -4.421875 C 72.898438 -3.378906 72.78125 -2.59375 72.78125 -2.0625 C 72.78125 -1.519531 72.898438 -0.71875 73.140625 0.34375 C 70.234375 0.113281 66.367188 0 61.546875 0 C 56.703125 0 52.820312 0.113281 49.90625 0.34375 L 42.59375 -16 C 41.21875 -19.175781 39.160156 -23.253906 36.421875 -28.234375 C 35.648438 -29.679688 34.863281 -30.703125 34.0625 -31.296875 C 33.226562 -32.035156 32.109375 -32.40625 30.703125 -32.40625 L 29.453125 -32.40625 L 29.453125 -28.4375 C 29.453125 -16.90625 29.703125 -9.9375 30.203125 -7.53125 C 30.398438 -6.21875 30.898438 -5.363281 31.703125 -4.96875 C 32.398438 -4.632812 33.285156 -4.46875 34.359375 -4.46875 L 36.8125 -4.46875 C 36.582031 -3.394531 36.46875 -2.59375 36.46875 -2.0625 C 36.46875 -1.519531 36.582031 -0.71875 36.8125 0.34375 C 32.570312 0.113281 26.957031 0 19.96875 0 C 13.039062 0 7.472656 0.113281 3.265625 0.34375 C 3.460938 -0.71875 3.5625 -1.519531 3.5625 -2.0625 C 3.5625 -2.59375 3.460938 -3.394531 3.265625 -4.46875 L 5.71875 -4.46875 C 7.488281 -4.46875 8.660156 -4.851562 9.234375 -5.625 C 10.066406 -5.6875 10.535156 -13.289062 10.640625 -28.4375 L 10.640625 -42.53125 C 10.597656 -52 10.34375 -58.375 9.875 -61.65625 C 9.675781 -62.851562 9.160156 -63.617188 8.328125 -63.953125 C 7.660156 -64.253906 6.789062 -64.40625 5.71875 -64.40625 L 3.265625 -64.40625 C 3.492188 -65.375 3.609375 -66.109375 3.609375 -66.609375 C 3.609375 -67.117188 3.492188 -67.859375 3.265625 -68.828125 C 7.109375 -68.585938 11.503906 -68.46875 16.453125 -68.46875 C 22.066406 -68.46875 27.300781 -68.535156 32.15625 -68.671875 C 36.832031 -68.773438 39.925781 -68.828125 41.4375 -68.828125 C 47.351562 -68.828125 51.96875 -68.125 55.28125 -66.71875 C 58.382812 -65.34375 60.773438 -63.132812 62.453125 -60.09375 C 63.691406 -57.75 64.3125 -55.175781 64.3125 -52.375 C 64.3125 -47.988281 62.921875 -44.328125 60.140625 -41.390625 C 57.265625 -38.304688 51.96875 -36.316406 44.25 -35.421875 Z M 29.453125 -37.625 L 30.90625 -37.625 C 35.382812 -37.625 38.476562 -38.175781 40.1875 -39.28125 C 43.257812 -41.28125 44.796875 -45.007812 44.796875 -50.46875 C 44.796875 -54.144531 44.007812 -57.238281 42.4375 -59.75 C 40.769531 -62.457031 38.113281 -63.8125 34.46875 -63.8125 C 33.125 -63.8125 32 -63.59375 31.09375 -63.15625 C 30.363281 -62.789062 29.984375 -61.738281 29.953125 -60 C 29.953125 -59.59375 29.898438 -58.253906 29.796875 -55.984375 C 29.765625 -54.210938 29.695312 -50.632812 29.59375 -45.25 Z M 29.453125 -37.625 "/></g></g><g style="fill:#004aad;fill-opacity:1;"><g transform="translate(348.701588, 471.03155)"><path style="stroke:none" d="M 32.5625 -28.640625 C 32.789062 -29.816406 32.90625 -30.703125 32.90625 -31.296875 C 32.90625 -31.867188 32.789062 -32.738281 32.5625 -33.90625 C 37.007812 -33.90625 40.164062 -34.625 42.03125 -36.0625 C 44.445312 -37.9375 45.65625 -41.515625 45.65625 -46.796875 C 45.65625 -51.453125 44.800781 -55.285156 43.09375 -58.296875 C 42.125 -59.960938 40.734375 -61.296875 38.921875 -62.296875 C 37.253906 -63.234375 35.453125 -63.703125 33.515625 -63.703125 C 31.367188 -63.703125 30.160156 -62.914062 29.890625 -61.34375 C 29.828125 -60.84375 29.742188 -58.21875 29.640625 -53.46875 C 29.515625 -47.851562 29.453125 -44.296875 29.453125 -42.796875 L 29.453125 -28.390625 C 29.515625 -14.816406 29.894531 -7.546875 30.59375 -6.578125 C 31.164062 -5.140625 33.925781 -4.421875 38.875 -4.421875 C 38.644531 -3.378906 38.53125 -2.59375 38.53125 -2.0625 C 38.53125 -1.519531 38.644531 -0.71875 38.875 0.34375 C 32.15625 0.113281 25.050781 0 17.5625 0 C 12.070312 0 7.304688 0.113281 3.265625 0.34375 C 3.460938 -0.71875 3.5625 -1.519531 3.5625 -2.0625 C 3.5625 -2.59375 3.460938 -3.394531 3.265625 -4.46875 L 5.71875 -4.46875 C 7.488281 -4.46875 8.660156 -4.851562 9.234375 -5.625 C 10.066406 -5.6875 10.535156 -13.273438 10.640625 -28.390625 L 10.640625 -42.53125 C 10.597656 -52 10.34375 -58.375 9.875 -61.65625 C 9.675781 -62.851562 9.160156 -63.617188 8.328125 -63.953125 C 7.660156 -64.253906 6.789062 -64.40625 5.71875 -64.40625 L 3.265625 -64.40625 C 3.492188 -65.375 3.609375 -66.109375 3.609375 -66.609375 C 3.609375 -67.117188 3.492188 -67.859375 3.265625 -68.828125 C 7.140625 -68.585938 11.71875 -68.46875 17 -68.46875 C 23.15625 -68.46875 28.304688 -68.535156 32.453125 -68.671875 C 36.460938 -68.773438 39.125 -68.828125 40.4375 -68.828125 C 46.71875 -68.828125 51.847656 -67.804688 55.828125 -65.765625 C 58.941406 -64.191406 61.300781 -61.800781 62.90625 -58.59375 C 64.40625 -55.644531 65.15625 -52.382812 65.15625 -48.8125 C 65.15625 -42.050781 62.664062 -36.847656 57.6875 -33.203125 C 52.90625 -29.722656 47.1875 -27.984375 40.53125 -27.984375 C 38.789062 -27.984375 36.132812 -28.203125 32.5625 -28.640625 Z M 32.5625 -28.640625 "/></g></g><g style="fill:#004aad;fill-opacity:1;"><g transform="translate(415.565663, 471.03155)"><path style="stroke:none" d="M 72.140625 -64.453125 C 69.628906 -64.285156 67.972656 -64.070312 67.171875 -63.8125 C 65.960938 -63.375 65.289062 -62.21875 65.15625 -60.34375 C 64.851562 -54.863281 64.722656 -50.566406 64.765625 -47.453125 L 64.765625 -31.859375 C 64.765625 -23.296875 64.078125 -16.890625 62.703125 -12.640625 C 61.597656 -9.160156 59.859375 -6.398438 57.484375 -4.359375 C 52.703125 -0.316406 45.929688 1.703125 37.171875 1.703125 C 29.941406 1.703125 23.921875 0.316406 19.109375 -2.453125 C 13.890625 -5.460938 10.796875 -9.628906 9.828125 -14.953125 C 9.328125 -17.859375 9.078125 -22.140625 9.078125 -27.796875 L 9.078125 -49.3125 C 8.941406 -56.53125 8.828125 -60.507812 8.734375 -61.25 C 8.492188 -62.488281 7.875 -63.320312 6.875 -63.75 C 6.132812 -63.957031 4.53125 -64.191406 2.0625 -64.453125 C 2.289062 -65.429688 2.40625 -66.148438 2.40625 -66.609375 C 2.40625 -67.117188 2.289062 -67.859375 2.0625 -68.828125 C 6.070312 -68.585938 11.6875 -68.46875 18.90625 -68.46875 C 26.132812 -68.46875 31.753906 -68.585938 35.765625 -68.828125 C 35.566406 -67.859375 35.46875 -67.117188 35.46875 -66.609375 C 35.46875 -66.109375 35.566406 -65.390625 35.765625 -64.453125 C 34.554688 -64.359375 33.753906 -64.3125 33.359375 -64.3125 C 31.679688 -64.238281 30.515625 -64.007812 29.859375 -63.625 C 29.210938 -63.25 28.773438 -62.539062 28.546875 -61.5 C 28.140625 -60.195312 27.921875 -55.515625 27.890625 -47.453125 L 27.890625 -34.5625 C 27.890625 -30.34375 27.988281 -25.710938 28.1875 -20.671875 C 28.394531 -15.722656 29.535156 -12.109375 31.609375 -9.828125 C 33.910156 -7.285156 37.382812 -6.015625 42.03125 -6.015625 C 49.394531 -6.015625 53.910156 -9.3125 55.578125 -15.90625 C 56.210938 -18.3125 56.53125 -23.410156 56.53125 -31.203125 L 56.53125 -43.6875 C 56.5 -50.3125 56.21875 -55.832031 55.6875 -60.25 C 55.414062 -62.320312 54.59375 -63.554688 53.21875 -63.953125 C 52.519531 -64.117188 51 -64.285156 48.65625 -64.453125 C 48.851562 -65.429688 48.953125 -66.148438 48.953125 -66.609375 C 48.953125 -67.117188 48.851562 -67.859375 48.65625 -68.828125 C 51.4375 -68.585938 55.347656 -68.46875 60.390625 -68.46875 C 65.441406 -68.46875 69.359375 -68.585938 72.140625 -68.828125 C 71.898438 -67.859375 71.78125 -67.117188 71.78125 -66.609375 C 71.78125 -66.148438 71.898438 -65.429688 72.140625 -64.453125 Z M 72.140625 -64.453125 "/></g></g><path style=" stroke:none;fill-rule:evenodd;fill:#004aad;fill-opacity:1;" d="M 137.78125 315.691406 C 134.328125 310.996094 131.570312 306.023438 129.222656 300.917969 C 126.183594 294.289062 124.113281 287.109375 123.007812 279.929688 C 122.871094 278.824219 122.730469 277.722656 122.59375 276.617188 C 122.59375 276.617188 122.59375 276.617188 122.59375 276.476562 C 120.800781 266.675781 114.863281 257.703125 105.613281 252.316406 C 103.265625 250.9375 100.917969 249.96875 98.570312 249.140625 C 97.742188 249.003906 96.914062 249.140625 96.359375 249.691406 C 95.808594 250.246094 95.53125 251.074219 95.808594 251.765625 C 99.675781 266.398438 101.746094 286.558594 110.859375 297.1875 L 110.859375 297.328125 C 110.859375 297.328125 110.859375 297.328125 110.996094 297.464844 C 111.6875 298.429688 112.238281 299.257812 112.929688 300.089844 C 117.210938 305.335938 122.179688 310.167969 127.703125 314.171875 C 130.050781 315.828125 132.535156 317.484375 135.019531 318.867188 C 135.847656 319.28125 136.953125 319.140625 137.644531 318.3125 C 138.332031 317.621094 138.332031 316.519531 137.78125 315.691406 Z M 137.78125 315.691406 "/><path style=" stroke:none;fill-rule:evenodd;fill:#004aad;fill-opacity:1;" d="M 145.511719 310.441406 C 145.375 309.890625 145.375 309.476562 145.238281 308.925781 C 144.132812 301.746094 143.996094 294.289062 144.683594 287.109375 C 144.824219 286.003906 144.960938 284.902344 145.238281 283.796875 C 145.238281 283.796875 145.238281 283.65625 145.238281 283.65625 C 146.066406 273.71875 142.613281 263.5 135.019531 255.90625 C 133.085938 253.972656 131.15625 252.453125 128.945312 251.074219 C 128.253906 250.660156 127.566406 250.523438 126.734375 250.9375 C 126.046875 251.351562 125.632812 252.039062 125.632812 252.867188 C 125.769531 261.707031 126.046875 265.984375 127.839844 275.648438 L 127.839844 275.789062 C 127.839844 275.789062 127.839844 275.925781 127.839844 275.925781 L 127.839844 276.0625 C 127.980469 277.03125 128.117188 278.136719 128.253906 279.238281 C 129.222656 285.867188 131.15625 292.496094 134.054688 298.707031 C 136.125 303.402344 138.609375 307.957031 141.648438 312.101562 C 142.199219 312.929688 143.304688 313.203125 144.269531 312.789062 C 145.097656 312.375 145.652344 311.410156 145.511719 310.441406 Z M 145.511719 310.441406 "/><path style=" stroke:none;fill-rule:evenodd;fill:#004aad;fill-opacity:1;" d="M 160.699219 325.355469 C 161.527344 318.3125 163.1875 311.273438 165.808594 304.644531 C 166.222656 303.679688 166.636719 302.710938 167.050781 301.605469 C 167.050781 301.605469 167.050781 301.605469 167.191406 301.46875 C 170.503906 292.082031 169.8125 281.3125 164.429688 272.058594 C 163.1875 269.714844 161.667969 267.640625 159.871094 265.710938 C 159.320312 265.15625 158.628906 264.878906 157.800781 265.15625 C 156.972656 265.296875 156.421875 265.847656 156.28125 266.675781 C 152.140625 281.171875 147.859375 292.21875 150.347656 308.097656 C 150.898438 311.410156 151.589844 314.722656 152.554688 317.898438 L 154.902344 325.492188 C 155.039062 326.183594 155.730469 326.734375 156.558594 327.011719 C 157.109375 327.011719 157.664062 327.148438 158.214844 327.289062 C 158.769531 327.425781 159.320312 327.289062 159.871094 326.875 C 160.285156 326.597656 160.5625 326.042969 160.699219 325.355469 Z M 141.785156 320.660156 L 141.371094 322.039062 C 142.335938 322.453125 143.167969 322.871094 143.996094 323.144531 L 143.855469 323.007812 C 143.167969 322.179688 142.476562 321.488281 141.785156 320.660156 Z M 141.785156 320.660156 "/><path style=" stroke:none;fill-rule:evenodd;fill:#004aad;fill-opacity:1;" d="M 465.417969 315.691406 C 468.730469 310.996094 471.628906 306.023438 473.976562 300.917969 C 476.875 294.289062 478.949219 287.109375 480.050781 279.929688 C 480.191406 278.824219 480.328125 277.722656 480.464844 276.617188 C 480.464844 276.617188 480.464844 276.617188 480.605469 276.476562 C 482.261719 266.675781 488.199219 257.703125 497.585938 252.316406 C 499.796875 250.9375 502.28125 249.96875 504.628906 249.140625 C 505.457031 249.003906 506.148438 249.140625 506.835938 249.691406 C 507.390625 250.246094 507.527344 251.074219 507.390625 251.765625 C 503.523438 266.398438 501.3125 286.558594 492.339844 297.1875 L 492.339844 297.328125 C 492.339844 297.328125 492.203125 297.328125 492.203125 297.464844 C 491.511719 298.429688 490.820312 299.257812 490.269531 300.089844 C 485.988281 305.335938 481.019531 310.167969 475.359375 314.171875 C 473.148438 315.828125 470.664062 317.484375 468.179688 318.867188 C 467.351562 319.28125 466.246094 319.140625 465.554688 318.3125 C 464.863281 317.621094 464.726562 316.519531 465.417969 315.691406 Z M 465.417969 315.691406 "/><path style=" stroke:none;fill-rule:evenodd;fill:#004aad;fill-opacity:1;" d="M 457.683594 310.441406 C 457.683594 309.890625 457.824219 309.476562 457.960938 308.925781 C 459.066406 301.746094 459.203125 294.289062 458.375 287.109375 C 458.238281 286.003906 458.097656 284.902344 457.960938 283.796875 C 457.960938 283.796875 457.960938 283.65625 457.960938 283.65625 C 457.132812 273.71875 460.585938 263.5 468.179688 255.90625 C 469.972656 253.972656 472.042969 252.453125 474.113281 251.074219 C 474.804688 250.660156 475.632812 250.523438 476.324219 250.9375 C 477.015625 251.351562 477.429688 252.039062 477.429688 252.867188 C 477.429688 261.707031 477.152344 265.984375 475.359375 275.648438 L 475.359375 275.789062 C 475.359375 275.789062 475.359375 275.925781 475.359375 275.925781 L 475.359375 276.0625 C 475.21875 277.03125 475.082031 278.136719 474.945312 279.238281 C 473.839844 285.867188 471.90625 292.496094 469.144531 298.707031 C 467.074219 303.402344 464.589844 307.957031 461.550781 312.101562 C 461 312.929688 459.894531 313.203125 458.925781 312.789062 C 457.960938 312.375 457.546875 311.410156 457.683594 310.441406 Z M 457.683594 310.441406 "/><path style=" stroke:none;fill-rule:evenodd;fill:#004aad;fill-opacity:1;" d="M 442.496094 325.355469 C 441.667969 318.3125 440.011719 311.273438 437.390625 304.644531 C 436.976562 303.679688 436.5625 302.710938 436.144531 301.605469 C 436.007812 301.605469 436.007812 301.605469 436.007812 301.46875 C 432.695312 292.082031 433.246094 281.3125 438.632812 272.058594 C 440.011719 269.714844 441.53125 267.640625 443.324219 265.710938 C 443.738281 265.15625 444.570312 264.878906 445.398438 265.15625 C 446.085938 265.296875 446.640625 265.847656 446.914062 266.675781 C 451.058594 281.171875 455.335938 292.21875 452.851562 308.097656 C 452.300781 311.410156 451.472656 314.722656 450.503906 317.898438 L 448.296875 325.492188 C 448.019531 326.183594 447.46875 326.734375 446.640625 327.011719 C 446.085938 327.011719 445.535156 327.148438 444.984375 327.289062 C 444.429688 327.425781 443.878906 327.289062 443.324219 326.875 C 442.773438 326.597656 442.496094 326.042969 442.496094 325.355469 Z M 461.414062 320.660156 L 461.6875 322.039062 C 460.859375 322.453125 460.03125 322.871094 459.066406 323.144531 L 459.339844 323.007812 C 460.03125 322.179688 460.722656 321.488281 461.414062 320.660156 Z M 461.414062 320.660156 "/><path style=" stroke:none;fill-rule:evenodd;fill:#004aad;fill-opacity:1;" d="M 292.003906 389.832031 C 292.554688 385.691406 292.832031 381.546875 292.832031 377.128906 C 292.832031 343.578125 275.296875 314.171875 248.789062 297.328125 L 242.300781 293.597656 C 242.300781 293.597656 242.300781 293.597656 242.160156 293.597656 C 242.160156 293.597656 242.160156 293.597656 242.160156 293.460938 L 210.128906 274.960938 L 174.785156 254.664062 C 174.230469 254.25 173.542969 254.25 172.988281 254.527344 C 172.296875 254.800781 171.882812 255.214844 171.609375 255.90625 C 171.054688 257.976562 170.640625 260.046875 170.640625 262.394531 C 170.640625 291.390625 207.921875 276.753906 207.921875 308.097656 C 207.921875 318.449219 201.707031 327.289062 192.734375 331.015625 C 192.59375 331.015625 192.59375 331.015625 192.457031 331.015625 C 185.96875 332.671875 179.203125 333.636719 172.296875 333.636719 C 154.488281 333.636719 138.195312 327.976562 124.804688 318.175781 C 118.867188 313.894531 113.621094 308.925781 109.0625 303.125 C 108.375 302.296875 107.683594 301.46875 106.992188 300.503906 C 106.992188 300.503906 106.992188 300.503906 106.855469 300.363281 C 100.503906 292.769531 90.839844 287.9375 80.070312 287.9375 C 77.445312 287.9375 74.824219 288.214844 72.335938 288.765625 C 71.648438 289.042969 70.957031 289.59375 70.820312 290.285156 C 70.542969 291.113281 70.679688 291.804688 71.371094 292.496094 L 113.34375 334.46875 L 114.035156 335.15625 L 126.734375 347.859375 C 127.011719 348.136719 127.289062 348.273438 127.703125 348.410156 C 181.6875 362.910156 235.121094 377.128906 289.242188 391.628906 C 289.933594 391.902344 290.484375 391.765625 291.035156 391.351562 C 291.589844 391.074219 291.867188 390.523438 292.003906 389.832031 Z M 311.195312 389.832031 C 310.644531 385.691406 310.367188 381.546875 310.367188 377.128906 C 310.367188 343.578125 327.902344 314.171875 354.273438 297.328125 C 354.410156 297.328125 354.410156 297.328125 354.410156 297.328125 L 360.898438 293.597656 C 360.898438 293.597656 361.039062 293.597656 361.039062 293.460938 L 393.070312 274.960938 L 428.414062 254.664062 C 428.96875 254.25 429.519531 254.25 430.210938 254.527344 C 430.898438 254.800781 431.3125 255.214844 431.453125 255.90625 C 432.140625 257.976562 432.417969 260.046875 432.417969 262.394531 C 432.417969 291.390625 395.140625 276.753906 395.140625 308.097656 C 395.140625 318.449219 401.492188 327.289062 410.464844 331.015625 C 410.464844 331.015625 410.605469 331.015625 410.742188 331.015625 C 417.230469 332.671875 423.859375 333.636719 430.898438 333.636719 C 448.574219 333.636719 465.003906 327.976562 478.394531 318.175781 C 484.332031 313.894531 489.578125 308.925781 494.136719 303.125 C 494.824219 302.296875 495.515625 301.46875 496.207031 300.503906 C 496.207031 300.503906 496.207031 300.503906 496.207031 300.363281 C 502.695312 292.769531 512.359375 287.9375 523.128906 287.9375 C 525.753906 287.9375 528.375 288.214844 530.722656 288.765625 C 531.550781 289.042969 532.101562 289.59375 532.378906 290.285156 C 532.65625 291.113281 532.378906 291.804688 531.828125 292.496094 L 489.714844 334.46875 L 489.164062 335.15625 L 476.460938 347.859375 C 476.1875 348.136719 475.910156 348.273438 475.496094 348.410156 C 421.511719 362.910156 368.078125 377.128906 313.957031 391.628906 C 313.265625 391.902344 312.714844 391.765625 312.160156 391.351562 C 311.609375 391.074219 311.332031 390.523438 311.195312 389.832031 Z M 311.195312 389.832031 "/><path style=" stroke:none;fill-rule:evenodd;fill:#004aad;fill-opacity:1;" d="M 301.53125 306.992188 C 156.421875 160.777344 246.027344 110.105469 301.53125 188.945312 C 357.171875 110.105469 446.777344 160.777344 301.53125 306.992188 Z M 301.53125 306.992188 "/><g clip-rule="nonzero" clip-path="url(#306e231b8d)"><path style=" stroke:none;fill-rule:nonzero;fill:#004aad;fill-opacity:1;" d="M 494.554688 222 C 494.554688 222.433594 494.511719 222.863281 494.425781 223.289062 C 494.34375 223.714844 494.21875 224.128906 494.050781 224.53125 C 493.886719 224.929688 493.679688 225.3125 493.441406 225.671875 C 493.199219 226.035156 492.925781 226.367188 492.617188 226.675781 C 492.3125 226.984375 491.976562 227.257812 491.617188 227.496094 C 491.253906 227.738281 490.875 227.941406 490.472656 228.109375 C 490.070312 228.273438 489.65625 228.402344 489.230469 228.484375 C 488.804688 228.570312 488.375 228.613281 487.941406 228.613281 C 487.507812 228.613281 487.078125 228.570312 486.652344 228.484375 C 486.226562 228.402344 485.8125 228.273438 485.410156 228.109375 C 485.011719 227.941406 484.628906 227.738281 484.269531 227.496094 C 483.90625 227.257812 483.574219 226.984375 483.265625 226.675781 C 482.957031 226.367188 482.683594 226.035156 482.441406 225.671875 C 482.203125 225.3125 482 224.929688 481.832031 224.53125 C 481.667969 224.128906 481.539062 223.714844 481.457031 223.289062 C 481.371094 222.863281 481.328125 222.433594 481.328125 222 C 481.328125 221.566406 481.371094 221.136719 481.457031 220.710938 C 481.539062 220.285156 481.667969 219.871094 481.832031 219.46875 C 482 219.066406 482.203125 218.6875 482.441406 218.324219 C 482.683594 217.964844 482.957031 217.628906 483.265625 217.324219 C 483.574219 217.015625 483.90625 216.742188 484.269531 216.5 C 484.628906 216.261719 485.011719 216.054688 485.410156 215.890625 C 485.8125 215.722656 486.226562 215.597656 486.652344 215.515625 C 487.078125 215.429688 487.507812 215.386719 487.941406 215.386719 C 488.375 215.386719 488.804688 215.429688 489.230469 215.515625 C 489.65625 215.597656 490.070312 215.722656 490.472656 215.890625 C 490.875 216.054688 491.253906 216.261719 491.617188 216.5 C 491.976562 216.742188 492.3125 217.015625 492.617188 217.324219 C 492.925781 217.628906 493.199219 217.964844 493.441406 218.324219 C 493.679688 218.6875 493.886719 219.066406 494.050781 219.46875 C 494.21875 219.871094 494.34375 220.285156 494.425781 220.710938 C 494.511719 221.136719 494.554688 221.566406 494.554688 222 Z M 494.554688 222 "/></g><path style="fill:none;stroke-width:3;stroke-linecap:butt;stroke-linejoin:miter;stroke:#004aad;stroke-opacity:1;stroke-miterlimit:4;" d="M 0.00103211 1.500266 L 282.231126 1.500266 " transform="matrix(1.338267,-0.000000000000000332,0.000000000000000332,1.338267,109.95565,477.054744)"/><g clip-rule="nonzero" clip-path="url(#777f99f824)"><path style=" stroke:none;fill-rule:nonzero;fill:#004aad;fill-opacity:1;" d="M 300.410156 165.492188 L 301.847656 163.15625 C 306.128906 156.136719 310.273438 151.113281 314.28125 148.089844 C 318.839844 144.28125 325.140625 141.496094 333.179688 139.734375 C 349.957031 136.90625 363.59375 139.570312 374.085938 147.714844 C 377.929688 150.328125 381.898438 155.148438 385.988281 162.171875 C 389.558594 168.816406 391.667969 176.429688 392.316406 185.015625 C 393.445312 198.042969 389.78125 211.917969 381.320312 226.644531 C 377.839844 233.839844 367.695312 246.085938 350.878906 263.378906 C 335.367188 278.261719 318.496094 293.226562 300.273438 308.265625 C 253.941406 269.355469 228.199219 245.5 223.042969 236.699219 C 211.78125 223.691406 206.011719 208.605469 205.730469 191.445312 C 207.859375 163.4375 218.976562 146.636719 239.082031 141.042969 C 250.664062 137.945312 261.882812 138.582031 272.742188 142.953125 C 281.609375 146.988281 290.832031 154.503906 300.410156 165.492188 "/></g><g clip-rule="nonzero" clip-path="url(#edbb7750fc)"><path style=" stroke:none;fill-rule:nonzero;fill:#004aad;fill-opacity:0.118;" d="M 368.324219 144.035156 C 374.75 159.289062 377.992188 172.566406 378.054688 183.867188 C 378.132812 188.371094 377.742188 192.929688 376.882812 197.53125 L 375.207031 204.472656 C 372.367188 213.855469 368.039062 222.984375 362.222656 231.863281 C 356.402344 240.746094 349.824219 248.75 342.484375 255.882812 C 338.863281 259.40625 335.183594 262.601562 331.453125 265.457031 C 329.179688 267.546875 324.03125 270.757812 316.003906 275.085938 C 304.0625 280.921875 289.339844 283.90625 271.839844 284.039062 C 280.25 291.335938 289.730469 299.410156 300.273438 308.265625 C 318.496094 293.226562 335.367188 278.261719 350.878906 263.378906 C 367.695312 246.085938 377.839844 233.839844 381.320312 226.644531 C 389.78125 211.917969 393.445312 198.042969 392.316406 185.015625 C 391.667969 176.429688 389.558594 168.816406 385.988281 162.171875 C 381.917969 155.164062 377.929688 150.328125 374.027344 147.671875 C 372.199219 146.304688 370.296875 145.09375 368.328125 144.035156 Z M 318.976562 284.492188 C 318.972656 284.492188 318.972656 284.492188 318.972656 284.492188 Z M 318.976562 284.492188 "/></g><g style="fill:#004aad;fill-opacity:1;"><g transform="translate(126.777933, 212.070824)"><path style="stroke:none" d="M 1.609375 -14.84375 L 5.15625 -13.0625 L 0.796875 -2 L -4.90625 -4.578125 L -18.84375 -9.765625 L -16.859375 -14.796875 L -3.640625 -9.25 L -1.34375 -8.46875 L 1.125 -14.703125 Z M 1.609375 -14.84375 "/></g></g><g style="fill:#004aad;fill-opacity:1;"><g transform="translate(132.66209, 197.221634)"><path style="stroke:none" d="M 3.5 -16.46875 L 3.984375 -16.5625 L 7.359375 -14.484375 L 1.046875 -2.046875 L -4.40625 -5.140625 L -17.796875 -11.609375 L -11.40625 -24.21875 L -10.90625 -24.296875 L -7.578125 -22.203125 L -10.078125 -17.703125 L -11.671875 -14.46875 L -7.9375 -12.515625 L -6.375 -15.578125 L -4.921875 -18.6875 L -4.421875 -18.765625 L -1.078125 -16.703125 L -2.859375 -13.375 L -4.296875 -10.546875 L -2.6875 -9.6875 L -0.3125 -8.5625 L 1.296875 -11.640625 Z M 3.5 -16.46875 "/></g></g><g style="fill:#004aad;fill-opacity:1;"><g transform="translate(140.933853, 180.713042)"><path style="stroke:none" d="M 5.671875 -20.6875 L 11.34375 -17.15625 L 8.171875 -12.34375 L -6.859375 -13.28125 L -7.046875 -13.015625 L -2.375 -9.890625 L 3.9375 -5.953125 L 1.28125 -1.9375 L -3.75 -5.59375 L -16.34375 -13.59375 L -13.171875 -18.375 L 1.890625 -17.453125 L 2.0625 -17.734375 L -8.75 -24.703125 L -6.296875 -28.9375 Z M 5.671875 -20.6875 "/></g></g><g style="fill:#004aad;fill-opacity:1;"><g transform="translate(154.401918, 160.577871)"><path style="stroke:none" d="M -8.765625 -22.390625 C -6.734375 -24.742188 -4.539062 -25.984375 -2.1875 -26.109375 C 0.15625 -26.234375 2.535156 -25.257812 4.953125 -23.1875 C 7.785156 -20.738281 9.347656 -18.144531 9.640625 -15.40625 C 9.941406 -12.675781 8.953125 -9.988281 6.671875 -7.34375 C 5.359375 -5.820312 3.640625 -3.960938 1.515625 -1.765625 L 1.5 -1.734375 L -3.046875 -6.046875 L -14.5 -15.515625 L -14.484375 -15.546875 Z M 4.265625 -10.71875 C 6.160156 -12.914062 5.503906 -15.398438 2.296875 -18.171875 C 0.410156 -19.796875 -1.160156 -20.691406 -2.421875 -20.859375 C -3.691406 -21.035156 -4.835938 -20.523438 -5.859375 -19.328125 C -6.617188 -18.453125 -7.285156 -17.617188 -7.859375 -16.828125 L -0.28125 -10.0625 L 1.84375 -8.3125 C 2.8125 -9.175781 3.617188 -9.976562 4.265625 -10.71875 Z M 4.265625 -10.71875 "/></g></g><g style="fill:#004aad;fill-opacity:1;"><g transform="translate(169.849113, 143.262903)"><path style="stroke:none" d=""/></g></g><g style="fill:#004aad;fill-opacity:1;"><g transform="translate(174.261794, 138.574446)"><path style="stroke:none" d="M 14.921875 -12.671875 L 10.8125 -9.1875 L 8.40625 -11.15625 L 7.40625 -11.859375 L 4.46875 -9.46875 L 2.03125 -7.265625 L 2.390625 -6.46875 L 4.125 -3.5 L 0.15625 -0.125 L -8.34375 -20.640625 L -3.484375 -24.765625 Z M 4.03125 -14.25 L -2.734375 -19.046875 L -2.984375 -18.828125 L 0.34375 -11.125 L 2.234375 -12.640625 Z M 4.03125 -14.25 "/></g></g><g style="fill:#004aad;fill-opacity:1;"><g transform="translate(195.969921, 120.806457)"><path style="stroke:none" d="M 14.0625 -16.46875 L 17.75 -10.78125 L 13.203125 -8.015625 L 10.1875 -13.5 L 9.046875 -15.3125 L 5.40625 -13.140625 L 2.234375 -11.078125 L 3 -9.75 L 6.6875 -4.0625 L 2.15625 -1.3125 L -0.875 -6.78125 L -8.8125 -19.375 L -4.21875 -22.15625 L 0.015625 -14.875 L 3.484375 -16.90625 L 6.765625 -18.96875 L 2.234375 -26.078125 L 6.859375 -28.890625 Z M 14.0625 -16.46875 "/></g></g><g style="fill:#004aad;fill-opacity:1;"><g transform="translate(216.816293, 108.352381)"><path style="stroke:none" d="M 17.859375 -8.03125 L 12.9375 -5.828125 L 11.171875 -8.375 L 10.40625 -9.34375 L 6.90625 -7.859375 L 3.96875 -6.40625 L 4.078125 -5.546875 L 4.9375 -2.21875 L 0.1875 -0.078125 L -2.28125 -22.140625 L 3.53125 -24.765625 Z M 7.84375 -12.5625 L 2.65625 -19.046875 L 2.359375 -18.921875 L 3.421875 -10.578125 L 5.65625 -11.53125 Z M 7.84375 -12.5625 "/></g></g><g style="fill:#004aad;fill-opacity:1;"><g transform="translate(236.249177, 99.594045)"><path style="stroke:none" d="M 17.484375 -12.421875 L 19.640625 -6.078125 L 14.140625 -4.375 L 3.109375 -14.640625 L 2.796875 -14.546875 L 4.421875 -9.15625 L 6.828125 -2.109375 L 2.21875 -0.6875 L 0.640625 -6.703125 L -4.03125 -20.859375 L 1.453125 -22.5625 L 12.5 -12.3125 L 12.8125 -12.421875 L 8.890625 -24.65625 L 13.46875 -26.390625 Z M 17.484375 -12.421875 "/></g></g><g style="fill:#004aad;fill-opacity:1;"><g transform="translate(259.423406, 92.542278)"><path style="stroke:none" d="M 7.390625 -22.859375 C 10.453125 -23.398438 12.929688 -22.976562 14.828125 -21.59375 C 16.734375 -20.207031 17.960938 -17.945312 18.515625 -14.8125 C 19.160156 -11.113281 18.726562 -8.113281 17.21875 -5.8125 C 15.71875 -3.507812 13.25 -2.054688 9.8125 -1.453125 C 7.832031 -1.097656 5.328125 -0.75 2.296875 -0.40625 L 2.265625 -0.390625 L 1.46875 -6.609375 L -1.390625 -21.203125 L -1.359375 -21.21875 Z M 10.078125 -5.59375 C 12.941406 -6.09375 14.007812 -8.429688 13.28125 -12.609375 C 12.851562 -15.066406 12.203125 -16.757812 11.328125 -17.6875 C 10.453125 -18.625 9.242188 -18.957031 7.703125 -18.6875 C 6.554688 -18.488281 5.515625 -18.257812 4.578125 -18 L 6.15625 -7.953125 L 6.6875 -5.265625 C 7.988281 -5.316406 9.117188 -5.425781 10.078125 -5.59375 Z M 10.078125 -5.59375 "/></g></g><g style="fill:#004aad;fill-opacity:1;"><g transform="translate(282.344926, 88.921759)"><path style="stroke:none" d=""/></g></g><g style="fill:#004aad;fill-opacity:1;"><g transform="translate(288.948014, 88.279833)"><path style="stroke:none" d="M 8.515625 -10.734375 L 8.671875 -7.546875 L 0.984375 -5.984375 L 0.5625 -6.359375 L 0.421875 -9.546875 L 8.109375 -11.078125 Z M 8.515625 -10.734375 "/></g></g><g style="fill:#004aad;fill-opacity:1;"><g transform="translate(300.711768, 87.863551)"><path style="stroke:none" d=""/></g></g><g style="fill:#004aad;fill-opacity:1;"><g transform="translate(307.205475, 87.747823)"><path style="stroke:none" d="M 12.71875 -20.546875 C 14.726562 -20.398438 16.519531 -19.914062 18.09375 -19.09375 L 16.828125 -14.796875 L 16.453125 -14.625 C 15.878906 -15.082031 15.210938 -15.453125 14.453125 -15.734375 C 13.703125 -16.023438 12.953125 -16.195312 12.203125 -16.25 C 10.640625 -16.363281 9.445312 -15.957031 8.625 -15.03125 C 7.800781 -14.101562 7.316406 -12.582031 7.171875 -10.46875 C 6.835938 -5.894531 8.289062 -3.492188 11.53125 -3.265625 C 12.25 -3.210938 13.019531 -3.253906 13.84375 -3.390625 C 14.664062 -3.535156 15.410156 -3.753906 16.078125 -4.046875 L 16.53125 -3.75 L 15.78125 0.546875 C 14.21875 1.046875 12.550781 1.234375 10.78125 1.109375 C 7.488281 0.867188 5.0625 -0.222656 3.5 -2.171875 C 1.9375 -4.117188 1.28125 -6.820312 1.53125 -10.28125 C 1.78125 -13.789062 2.878906 -16.4375 4.828125 -18.21875 C 6.773438 -20.007812 9.40625 -20.785156 12.71875 -20.546875 Z M 12.71875 -20.546875 "/></g></g><g style="fill:#004aad;fill-opacity:1;"><g transform="translate(325.435132, 88.974439)"><path style="stroke:none" d="M 21.46875 -2.828125 L 20.40625 3.859375 L 15.1875 2.875 L 16.59375 -3.21875 L 16.96875 -5.328125 L 12.796875 -6.15625 L 9.0625 -6.75 L 8.75 -5.234375 L 7.6875 1.453125 L 2.46875 0.46875 L 3.890625 -5.625 L 6.390625 -20.28125 L 11.671875 -19.28125 L 9.953125 -11.046875 L 13.890625 -10.234375 L 17.71875 -9.578125 L 19.109375 -17.875 L 24.421875 -16.875 Z M 21.46875 -2.828125 "/></g></g><g style="fill:#004aad;fill-opacity:1;"><g transform="translate(349.262982, 93.656098)"><path style="stroke:none" d="M 18.640625 5.96875 L 13.515625 4.328125 L 13.90625 1.25 L 13.984375 0.015625 L 10.390625 -1.21875 L 7.234375 -2.109375 L 6.75 -1.390625 L 5.15625 1.640625 L 0.1875 0.0625 L 13.125 -17.984375 L 19.1875 -16.046875 Z M 14.25 -4.109375 L 14.71875 -12.375 L 14.40625 -12.484375 L 9.625 -5.578125 L 11.921875 -4.78125 Z M 14.25 -4.109375 "/></g></g><g style="fill:#004aad;fill-opacity:1;"><g transform="translate(369.568617, 100.139201)"><path style="stroke:none" d="M 21.296875 2.453125 L 18.671875 8.609375 L 13.4375 6.203125 L 12.09375 -8.796875 L 11.796875 -8.9375 L 9.40625 -3.84375 L 6.484375 2.984375 L 2.109375 0.96875 L 4.96875 -4.546875 L 10.953125 -18.21875 L 16.171875 -15.8125 L 17.53125 -0.796875 L 17.828125 -0.65625 L 23.09375 -12.390625 L 27.65625 -10.609375 Z M 21.296875 2.453125 "/></g></g><g style="fill:#004aad;fill-opacity:1;"><g transform="translate(391.521219, 110.465624)"><path style="stroke:none" d="M 21.640625 -11.8125 C 23.640625 -10.570312 25.171875 -9.171875 26.234375 -7.609375 L 22.78125 -4.1875 L 22.390625 -4.421875 C 21.796875 -5.472656 21.207031 -6.328125 20.625 -6.984375 C 20.039062 -7.640625 19.347656 -8.210938 18.546875 -8.703125 C 17.546875 -9.328125 16.640625 -9.640625 15.828125 -9.640625 C 15.015625 -9.648438 14.203125 -9.320312 13.390625 -8.65625 C 12.585938 -8 11.738281 -6.945312 10.84375 -5.5 C 9.957031 -4.070312 9.398438 -2.867188 9.171875 -1.890625 C 8.953125 -0.921875 9.035156 -0.0703125 9.421875 0.65625 C 9.816406 1.382812 10.539062 2.078125 11.59375 2.734375 C 12.113281 3.054688 12.773438 3.332031 13.578125 3.5625 L 14.359375 2.34375 L 16.09375 -0.640625 L 20.4375 1.609375 L 18.84375 4.0625 L 16.03125 8.671875 C 13.34375 8.085938 11.015625 7.191406 9.046875 5.984375 C 6.203125 4.222656 4.539062 2.132812 4.0625 -0.28125 C 3.582031 -2.695312 4.226562 -5.335938 6 -8.203125 C 7.925781 -11.328125 10.234375 -13.191406 12.921875 -13.796875 C 15.609375 -14.398438 18.515625 -13.738281 21.640625 -11.8125 Z M 21.640625 -11.8125 "/></g></g><g style="fill:#004aad;fill-opacity:1;"><g transform="translate(409.29075, 121.605739)"><path style="stroke:none" d="M 15.515625 6.5625 L 15.5 7.046875 L 12.84375 9.953125 L 1.8125 1.40625 L 5.875 -3.34375 L 14.765625 -15.28125 L 25.9375 -6.609375 L 25.921875 -6.140625 L 23.234375 -3.234375 L 19.296875 -6.546875 L 16.4375 -8.734375 L 13.765625 -5.421875 L 16.484375 -3.328125 L 19.28125 -1.3125 L 19.265625 -0.796875 L 16.609375 2.09375 L 13.6875 -0.28125 L 11.1875 -2.21875 L 10.03125 -0.796875 L 8.46875 1.3125 L 11.203125 3.453125 Z M 15.515625 6.5625 "/></g></g><g style="fill:#004aad;fill-opacity:1;"><g transform="translate(423.9952, 133.348848)"><path style="stroke:none" d=""/></g></g><g style="fill:#004aad;fill-opacity:1;"><g transform="translate(428.946395, 137.463778)"><path style="stroke:none" d="M 13.59375 14.09375 L 9.84375 10.203125 L 11.640625 7.703125 L 12.3125 6.640625 L 9.734375 3.859375 L 7.375 1.578125 L 6.59375 1.96875 L 3.75 3.890625 L 0.140625 0.140625 L 20.078125 -9.625 L 24.5 -5.03125 Z M 14.484375 3.125 L 18.828125 -3.921875 L 18.609375 -4.15625 L 11.125 -0.359375 L 12.75 1.4375 Z M 14.484375 3.125 "/></g></g><g style="fill:#004aad;fill-opacity:1;"><g transform="translate(443.738244, 153.295671)"><path style="stroke:none" d=""/></g></g><g style="fill:#004aad;fill-opacity:1;"><g transform="translate(447.9816, 158.278164)"><path style="stroke:none" d="M 11.703125 9.296875 L 8.28125 11.34375 L 1.265625 1.734375 L 6.5 -1.703125 L 18.328125 -10.71875 L 21.515625 -6.34375 L 9.765625 1.875 L 7.859375 3.390625 L 11.8125 8.8125 Z M 11.703125 9.296875 "/></g></g><g style="fill:#004aad;fill-opacity:1;"><g transform="translate(457.365187, 171.37829)"><path style="stroke:none" d="M 9.6875 2.734375 L 4.015625 6.484375 L 1.21875 1.953125 L 6.6875 -1.09375 L 19.171875 -9.1875 L 22.03125 -4.5625 Z M 9.6875 2.734375 "/></g></g><g style="fill:#004aad;fill-opacity:1;"><g transform="translate(463.593863, 181.339351)"><path style="stroke:none" d="M 18.578125 -1.046875 L 14.15625 1.140625 L 15.375 3.5 L 17.171875 6.703125 L 16.953125 7.140625 L 13.3125 8.671875 L 11.546875 5.0625 L 10.46875 2.984375 L 9.4375 3.484375 L 3.515625 6.765625 L 1.0625 2.03125 L 6.734375 -0.578125 L 19.8125 -7.6875 L 25.90625 4.0625 L 25.6875 4.484375 L 22.015625 5.984375 L 19.859375 1.359375 Z M 18.578125 -1.046875 "/></g></g><g style="fill:#004aad;fill-opacity:1;"><g transform="translate(471.294304, 196.242651)"><path style="stroke:none" d="M 10.109375 13.46875 L 9.859375 13.90625 L 6.078125 15.078125 L 0.859375 2.125 L 6.765625 0.0625 L 20.453125 -5.78125 L 25.734375 7.34375 L 25.484375 7.765625 L 21.703125 8.90625 L 19.96875 4.0625 L 18.578125 0.734375 L 14.640625 2.25 L 15.921875 5.4375 L 17.3125 8.59375 L 17.046875 9.015625 L 13.28125 10.171875 L 11.96875 6.65625 L 10.78125 3.703125 L 9.078125 4.359375 L 6.65625 5.40625 L 7.9375 8.625 Z M 10.109375 13.46875 "/></g></g><g style="fill:#004aad;fill-opacity:1;"><g transform="translate(113.912862, 518.24999)"><path style="stroke:none" d="M 10.359375 0 L 10.359375 -22.890625 L -0.359375 -22.890625 L -0.359375 -27.578125 L 26.546875 -27.578125 L 26.546875 -22.890625 L 15.875 -22.890625 L 15.875 0 Z M 10.359375 0 "/></g></g><g style="fill:#004aad;fill-opacity:1;"><g transform="translate(152.43323, 518.24999)"><path style="stroke:none" d="M 1.96875 0 L 1.96875 -27.578125 L 7.484375 -27.578125 L 7.484375 -16.15625 L 22.328125 -16.15625 L 22.328125 -27.578125 L 27.8125 -27.578125 L 27.8125 0 L 22.328125 0 L 22.328125 -11.421875 L 7.484375 -11.421875 L 7.484375 0 Z M 1.96875 0 "/></g></g><g style="fill:#004aad;fill-opacity:1;"><g transform="translate(194.498151, 518.24999)"><path style="stroke:none" d="M 1.9375 0 L 1.9375 -27.578125 L 23.984375 -27.578125 L 23.984375 -22.890625 L 7.203125 -22.890625 L 7.203125 -16.03125 L 23.3125 -16.03125 L 23.3125 -11.5 L 7.203125 -11.5 L 7.203125 -4.6875 L 23.984375 -4.6875 L 23.984375 0 Z M 1.9375 0 "/></g></g><g style="fill:#004aad;fill-opacity:1;"><g transform="translate(231.600699, 518.24999)"><path style="stroke:none" d=""/></g></g><g style="fill:#004aad;fill-opacity:1;"><g transform="translate(253.658545, 518.24999)"><path style="stroke:none" d="M 15.125 0.671875 C 13 0.671875 11.035156 0.3125 9.234375 -0.40625 C 7.429688 -1.132812 5.875 -2.144531 4.5625 -3.4375 C 3.25 -4.738281 2.234375 -6.273438 1.515625 -8.046875 C 0.796875 -9.828125 0.4375 -11.765625 0.4375 -13.859375 C 0.4375 -15.960938 0.796875 -17.894531 1.515625 -19.65625 C 2.234375 -21.414062 3.25 -22.9375 4.5625 -24.21875 C 5.875 -25.507812 7.429688 -26.507812 9.234375 -27.21875 C 11.035156 -27.925781 13 -28.28125 15.125 -28.28125 C 16.90625 -28.28125 18.65625 -27.988281 20.375 -27.40625 C 22.101562 -26.832031 23.648438 -25.910156 25.015625 -24.640625 C 26.378906 -23.367188 27.441406 -21.664062 28.203125 -19.53125 L 23.671875 -17.921875 C 23.066406 -19.367188 22.296875 -20.488281 21.359375 -21.28125 C 20.429688 -22.082031 19.425781 -22.648438 18.34375 -22.984375 C 17.269531 -23.316406 16.195312 -23.484375 15.125 -23.484375 C 13.34375 -23.484375 11.765625 -23.070312 10.390625 -22.25 C 9.023438 -21.4375 7.957031 -20.304688 7.1875 -18.859375 C 6.414062 -17.421875 6.03125 -15.753906 6.03125 -13.859375 C 6.03125 -11.992188 6.414062 -10.320312 7.1875 -8.84375 C 7.957031 -7.363281 9.023438 -6.203125 10.390625 -5.359375 C 11.765625 -4.515625 13.34375 -4.09375 15.125 -4.09375 C 16.195312 -4.09375 17.269531 -4.269531 18.34375 -4.625 C 19.425781 -4.976562 20.429688 -5.582031 21.359375 -6.4375 C 22.296875 -7.289062 23.066406 -8.441406 23.671875 -9.890625 L 28.4375 -8.390625 C 27.539062 -6.179688 26.394531 -4.414062 25 -3.09375 C 23.613281 -1.769531 22.070312 -0.8125 20.375 -0.21875 C 18.6875 0.375 16.9375 0.671875 15.125 0.671875 Z M 15.125 0.671875 "/></g></g><g style="fill:#004aad;fill-opacity:1;"><g transform="translate(294.029961, 518.24999)"><path style="stroke:none" d="M 1.96875 0 L 1.96875 -27.578125 L 7.484375 -27.578125 L 7.484375 -16.15625 L 22.328125 -16.15625 L 22.328125 -27.578125 L 27.8125 -27.578125 L 27.8125 0 L 22.328125 0 L 22.328125 -11.421875 L 7.484375 -11.421875 L 7.484375 0 Z M 1.96875 0 "/></g></g><g style="fill:#004aad;fill-opacity:1;"><g transform="translate(336.094882, 518.24999)"><path style="stroke:none" d="M -0.90625 0 L 13.15625 -27.734375 L 17.921875 -27.734375 L 31.90625 0 L 25.875 0 L 22.484375 -6.625 L 8.34375 -6.625 L 4.96875 0 Z M 10.640625 -11.1875 L 20.203125 -11.1875 L 17.453125 -17.140625 L 15.5625 -22.21875 L 13.515625 -17.0625 Z M 10.640625 -11.1875 "/></g></g><g style="fill:#004aad;fill-opacity:1;"><g transform="translate(379.30194, 518.24999)"><path style="stroke:none" d="M 1.96875 0 L 1.96875 -27.578125 L 6.859375 -27.578125 L 21.15625 -10.984375 L 24.1875 -6.703125 L 24.296875 -6.734375 L 23.828125 -11.9375 L 23.828125 -27.578125 L 29.109375 -27.578125 L 29.109375 0 L 23.75 0 L 9.421875 -16.984375 L 7.015625 -20.765625 L 6.8125 -20.71875 L 7.328125 -16.34375 L 7.328125 0 Z M 1.96875 0 "/></g></g><g style="fill:#004aad;fill-opacity:1;"><g transform="translate(422.66654, 518.24999)"><path style="stroke:none" d="M 15.171875 0.546875 C 12.328125 0.546875 9.800781 -0.046875 7.59375 -1.234375 C 5.394531 -2.429688 3.664062 -4.097656 2.40625 -6.234375 C 1.144531 -8.378906 0.515625 -10.867188 0.515625 -13.703125 C 0.515625 -15.804688 0.875 -17.738281 1.59375 -19.5 C 2.3125 -21.257812 3.328125 -22.785156 4.640625 -24.078125 C 5.960938 -25.378906 7.515625 -26.390625 9.296875 -27.109375 C 11.078125 -27.835938 13.035156 -28.203125 15.171875 -28.203125 C 16.867188 -28.203125 18.539062 -27.9375 20.1875 -27.40625 C 21.832031 -26.882812 23.320312 -26.039062 24.65625 -24.875 C 26 -23.707031 27.0625 -22.148438 27.84375 -20.203125 L 23.3125 -18.671875 C 22.6875 -19.898438 21.925781 -20.859375 21.03125 -21.546875 C 20.132812 -22.234375 19.179688 -22.707031 18.171875 -22.96875 C 17.160156 -23.226562 16.160156 -23.359375 15.171875 -23.359375 C 13.378906 -23.359375 11.789062 -22.941406 10.40625 -22.109375 C 9.03125 -21.285156 7.960938 -20.148438 7.203125 -18.703125 C 6.441406 -17.265625 6.0625 -15.613281 6.0625 -13.75 C 6.0625 -11.882812 6.441406 -10.226562 7.203125 -8.78125 C 7.960938 -7.34375 9.03125 -6.210938 10.40625 -5.390625 C 11.789062 -4.578125 13.378906 -4.171875 15.171875 -4.171875 C 16.160156 -4.171875 17.191406 -4.273438 18.265625 -4.484375 C 19.347656 -4.703125 20.335938 -5.082031 21.234375 -5.625 C 22.128906 -6.175781 22.8125 -6.941406 23.28125 -7.921875 L 23.28125 -11.34375 L 13.515625 -11.34375 L 13.515625 -15.796875 L 28.171875 -15.796875 L 28.171875 -7.015625 C 27.398438 -5.117188 26.332031 -3.617188 24.96875 -2.515625 C 23.601562 -1.410156 22.070312 -0.625 20.375 -0.15625 C 18.6875 0.3125 16.953125 0.546875 15.171875 0.546875 Z M 15.171875 0.546875 "/></g></g><g style="fill:#004aad;fill-opacity:1;"><g transform="translate(464.77082, 518.24999)"><path style="stroke:none" d="M 1.9375 0 L 1.9375 -27.578125 L 23.984375 -27.578125 L 23.984375 -22.890625 L 7.203125 -22.890625 L 7.203125 -16.03125 L 23.3125 -16.03125 L 23.3125 -11.5 L 7.203125 -11.5 L 7.203125 -4.6875 L 23.984375 -4.6875 L 23.984375 0 Z M 1.9375 0 "/></g></g></g></svg>