<svg width="24" height="24" viewBox="0 0 24 24" fill="none" xmlns="http://www.w3.org/2000/svg">
<path d="M12 22C17.5228 22 22 17.5228 22 12C22 6.47715 17.5228 2 12 2C6.47715 2 2 6.47715 2 12C2 17.5228 6.47715 22 12 22Z" stroke="#366342" stroke-width="2" stroke-linecap="round" stroke-linejoin="round"/>
<path d="M14.125 7.5H12.875C12.5435 7.5 12.2255 7.6317 11.9911 7.86612C11.7567 8.10054 11.625 8.41848 11.625 8.75C11.625 9.08152 11.7567 9.39946 11.9911 9.63388C12.2255 9.8683 12.5435 10 12.875 10H14.75C15.125 10 15.4375 9.875 15.625 9.625L19.125 6.25" stroke="#366342" stroke-width="2" stroke-linecap="round" stroke-linejoin="round"/>
<path d="M16.625 3.75L15.625 4.625C15.4375 4.875 15.125 5 14.75 5H12.25C11.5625 5 10.9375 5.25 10.5 5.75L7.625 8.5C7.38382 8.72792 7.24306 9.04231 7.23368 9.37402C7.2243 9.70572 7.34708 10.0276 7.575 10.2687C7.80292 10.5099 8.11732 10.6507 8.44902 10.6601C8.78073 10.6694 9.10257 10.5467 9.34375 10.3187L11.9688 7.88125" stroke="#366342" stroke-width="2" stroke-linecap="round" stroke-linejoin="round"/>
<path d="M19.75 6.875L16 3.125" stroke="#366342" stroke-width="2" stroke-linecap="round" stroke-linejoin="round"/>
<path d="M9.875 16.5H11.125C11.4565 16.5 11.7745 16.3683 12.0089 16.1339C12.2433 15.8995 12.375 15.5815 12.375 15.25C12.375 14.9185 12.2433 14.6005 12.0089 14.3661C11.7745 14.1317 11.4565 14 11.125 14H9.25C8.875 14 8.5625 14.125 8.375 14.375L4.875 17.75" stroke="#366342" stroke-width="2" stroke-linecap="round" stroke-linejoin="round"/>
<path d="M7.375 20.25L8.375 19.375C8.5625 19.125 8.875 19 9.25 19H11.75C12.4375 19 13.0625 18.75 13.5 18.25L16.375 15.5C16.6162 15.2721 16.7569 14.9577 16.7663 14.626C16.7757 14.2943 16.6529 13.9724 16.425 13.7313C16.1971 13.4901 15.8827 13.3493 15.551 13.3399C15.2193 13.3306 14.8974 13.4533 14.6562 13.6813L12.0312 16.1188" stroke="#366342" stroke-width="2" stroke-linecap="round" stroke-linejoin="round"/>
<path d="M4.25 17.125L8 20.875" stroke="#366342" stroke-width="2" stroke-linecap="round" stroke-linejoin="round"/>
</svg>
