<svg version="1.2" xmlns="http://www.w3.org/2000/svg" viewBox="0 0 800 801" width="800" height="801"><defs><clipPath clipPathUnits="userSpaceOnUse" id="cp1"><path d="m146.61 288.52h17.85v17.85h-17.85z"/></clipPath><clipPath clipPathUnits="userSpaceOnUse" id="cp2"><path d="m641.77 288.52h17.86v17.85h-17.86z"/></clipPath><clipPath clipPathUnits="userSpaceOnUse" id="cp3"><path d="m274.3 185.33h249.7v227.02h-249.7z"/></clipPath><clipPath clipPathUnits="userSpaceOnUse" id="cp4"><path d="m361.33 193.33h162.67v219.02h-162.67z"/></clipPath></defs><style>.a{fill:#004aad}.b{fill:none;stroke:#004aad;stroke-width:5.4}.c{opacity:.12;fill:#004aad}</style><g clip-path="url(#cp1)"><path class="a" d="m164.2 297.3q0 0.9-0.1 1.8-0.2 0.8-0.5 1.6-0.4 0.8-0.8 1.5-0.5 0.8-1.1 1.4-0.7 0.6-1.4 1.1-0.7 0.4-1.5 0.8-0.8 0.3-1.7 0.5-0.8 0.2-1.7 0.2-0.8 0-1.7-0.2-0.8-0.2-1.6-0.5-0.9-0.4-1.6-0.8-0.7-0.5-1.3-1.1-0.6-0.6-1.1-1.4-0.5-0.7-0.8-1.5-0.4-0.8-0.5-1.6-0.2-0.9-0.2-1.8 0-0.8 0.2-1.7 0.1-0.8 0.5-1.6 0.3-0.8 0.8-1.6 0.5-0.7 1.1-1.3 0.6-0.6 1.3-1.1 0.7-0.5 1.6-0.8 0.8-0.3 1.6-0.5 0.9-0.2 1.7-0.2 0.9 0 1.7 0.2 0.9 0.2 1.7 0.5 0.8 0.3 1.5 0.8 0.7 0.5 1.4 1.1 0.6 0.6 1.1 1.3 0.4 0.8 0.8 1.6 0.3 0.8 0.5 1.6 0.1 0.9 0.1 1.7z"/></g><path class="a" d="m216.4 612.3q-3.5 3-6.6 7.6-3.1 4.7-5 9.1-2.8-0.4-4.3-0.4-1.5 0-4.3 0.4-4-10.2-9.8-24.3l-5.2-13.2-10.9-25.1v30.1 8.1q0 14 0.5 16 0.7 2.4 4.9 2.6l4.5 0.2q-0.4 2.2-0.4 3.2 0 1.1 0.4 3.2-5.7-0.4-15.2-0.4-9.5 0-15.2 0.4 0.5-2.1 0.5-3.2 0-1-0.5-3.2l4.3-0.2q2.4-0.1 3.2-1.2 1-1.2 1.7-9.1 0.8-8.6 1.2-14.1l2.8-38.2q0.7-9.2 0.7-12.2 0-2.6-0.8-3.2-0.8-0.8-3.9-1.2 0 0-2.7-0.3-1.1-0.1-2.2-0.3 0.4-1.9 0.4-2.8 0-1.1-0.4-3 5.6 0.5 15.6 0.5 10 0 15.6-0.5 1.3 4.6 7.6 19.5l17.2 41.7 6.3-15.3q6.6-15.7 15.8-45.9 5.7 0.5 15.7 0.5 10 0 15.7-0.5-0.5 1.9-0.5 3 0 0.9 0.5 2.8-2.4 0.3-3.1 0.4-2.9 0.3-3.6 1-1 0.6-1 3.5v14.6l0.4 27.6q0.2 20.1 1.6 29 0.5 2.5 2.1 3.2 0.8 0.4 3.6 0.6l2.8 0.1q-0.4 2.2-0.4 3.2 0 1.1 0.4 3.2-8-0.4-21.4-0.4-13.5 0-21.5 0.4 0.5-2.1 0.5-3.2 0-1-0.5-3.2l3.5-0.1q2.4-0.1 3.2-0.9 0.6-0.5 0.8-2.3 0.3-5.2 0.5-9.8l0.3-14.9 0.4-17.9v-13.9l-8.5 22.5q-4.7 12.9-6 17.3-1.1 3.8-1.3 8.9z"/><path class="a" d="m324.8 596.2q-4.6-0.4-11.1-0.4-7.3 0-12.5 0.4l-2.7 8.8q-3.5 12-3.5 15.2 0 1.5 1.5 2.2 0.8 0.2 8.8 1-0.5 2.2-0.5 3.2 0 1.1 0.5 3.2-6.6-0.4-17.5-0.4-10.9 0-17.5 0.4 0.4-2.1 0.4-3.2 0-1-0.4-3.2 4.1-0.4 6.1-1.1 1.9-0.5 3.2-3 7.4-16.2 12.3-29.4l4.6-12.6q1.2-3 3.3-9.7 1.1-3.4 3-9.3 2.7-7.9 2.7-10.1 0-0.3-0.1-1.8 0-0.3-0.1-0.7 5.1-1.2 9.5-4.1 4.5-3.1 6.5-6.7 2.3 0.3 3.5 0.3 1.2 0 3.6-0.3 2.2 9.5 7.7 24.2l10.7 27.9q6.6 16.9 9.6 25 3.1 8.3 3.7 9.1 1 1.7 3.2 2 0.9 0.3 3.2 0.3-0.5 2.2-0.5 3.2 0 1.1 0.5 3.2-8-0.4-21.3-0.4-13.4 0-21.4 0.4 0.5-2.1 0.5-3.2 0-1-0.5-3.2 5.3-0.4 6.8-1 1.6-0.5 1.6-2 0-2.1-4.2-14.4zm-2.4-8.3l-9.7-28.7-9.4 28.7q6.3 0.2 9.6 0.2 3.1 0 9.5-0.2z"/><path class="a" d="m425.5 582.1q5.9 2.3 9.4 5.2 4.6 4 9.6 12.7l4.4 8q2.5 4.3 4.9 8.5 3.6 6.7 10.2 7-0.5 2.1-0.5 3.1 0 1.1 0.5 3.2-5.8-0.4-15.5-0.4-9.6 0-15.5 0.4l-9.7-21.8q-2.8-6.3-8.3-16.3-1.5-2.9-3.1-4.1-1.7-1.4-4.5-1.4h-1.6v5.3q0 23 1 27.8 0.3 2.7 2 3.5 1.3 0.6 3.5 0.6h3.3q-0.5 2.2-0.5 3.2 0 1.1 0.5 3.2-8.5-0.4-22.5-0.4-13.8 0-22.3 0.4 0.4-2.1 0.4-3.2 0-1-0.4-3.2h3.3q3.6 0 4.7-1.5 1.7-0.1 1.9-30.4v-18.8q-0.1-19-1-25.5-0.4-2.4-2.1-3.1-1.3-0.6-3.5-0.6h-3.3q0.5-1.9 0.5-2.9 0-1.1-0.5-3 7.7 0.5 17.6 0.5 11.3 0 21-0.3 9.3-0.2 12.3-0.2 11.9 0 18.5 2.8 6.2 2.8 9.6 8.9 2.4 4.6 2.4 10.2 0 8.8-5.5 14.7-5.8 6.2-21.2 7.9zm-19.7-2.9h1.9q8.9 0 12.4-2.2 6.1-4 6.1-14.9 0-7.4-3.1-12.4-3.4-5.4-10.7-5.4-2.6 0-4.5 0.9-1.4 0.7-1.5 4.2 0 0.8-0.2 5.3 0 3.6-0.3 14.3z"/><path class="a" d="m508.4 591.2q0.4-2.4 0.4-3.6 0-1.1-0.4-3.4 8.8 0 12.6-2.9 4.8-3.8 4.8-14.3 0-9.3-3.4-15.4-1.9-3.3-5.6-5.3-3.3-1.9-7.2-1.9-4.3 0-4.8 3.2-0.1 1-0.3 10.5-0.3 11.2-0.3 14.2v19.2q0.1 27.2 1.5 29.1 1.2 2.9 11.1 2.9-0.5 2.1-0.5 3.1 0 1.1 0.5 3.2-13.5-0.4-28.4-0.4-11 0-19.1 0.4 0.4-2.1 0.4-3.2 0-1-0.4-3.2h3.3q3.5 0 4.6-1.5 1.7-0.1 1.9-30.4v-18.8q-0.1-19-1-25.5-0.4-2.4-2.1-3.1-1.3-0.6-3.4-0.6h-3.3q0.4-1.9 0.4-2.9 0-1.1-0.4-3 7.7 0.5 18.3 0.5 12.3 0 20.6-0.3 8-0.2 10.7-0.2 12.5 0 20.5 4.1 6.2 3.1 9.4 9.6 3 5.9 3 13 0 13.5-9.9 20.8-9.6 7-22.9 7-3.5 0-10.6-0.9z"/><path class="a" d="m650.3 543.4q-5 0.4-6.6 0.9-2.5 0.9-2.7 4.6-0.6 11-0.6 17.2v20.8q0 17.1-2.7 25.6-2.2 7-7 11.1-9.5 8-27 8-14.5 0-24.1-5.5-10.5-6-12.4-16.7-1-5.8-1-17.1v-28.7q-0.3-14.4-0.5-15.9-0.4-2.5-2.4-3.3-1.5-0.4-6.5-1 0.5-1.9 0.5-2.8 0-1.1-0.5-3 8.1 0.5 22.5 0.5 14.5 0 22.5-0.5-0.4 1.9-0.4 3 0 1 0.4 2.8-2.4 0.2-3.2 0.2-3.4 0.2-4.7 0.9-1.3 0.8-1.7 2.9-0.9 2.6-0.9 18.7v17.2q0 8.4 0.4 18.5 0.4 9.9 4.5 14.5 4.6 5.1 13.9 5.1 14.8 0 18.1-13.2 1.3-4.8 1.3-20.4v-16.7q-0.1-13.2-1.2-22.1-0.5-4.1-3.3-4.9-1.4-0.3-6-0.7 0.4-1.9 0.4-2.8 0-1.1-0.4-3 5.5 0.5 15.6 0.5 10.1 0 15.7-0.5-0.5 1.9-0.5 3 0 0.9 0.5 2.8z"/><path fill-rule="evenodd" class="a" d="m183.7 422.3c-4.6-6.3-8.3-12.9-11.4-19.7-4.1-8.9-6.8-18.5-8.3-28q-0.3-2.2-0.5-4.4c0 0 0 0 0-0.2-2.4-13.1-10.3-25.1-22.7-32.2-3.1-1.9-6.2-3.2-9.4-4.3-1.1-0.2-2.2 0-2.9 0.8-0.8 0.7-1.1 1.8-0.8 2.7 5.2 19.5 8 46.4 20.1 60.6v0.2c0 0 0 0 0.2 0.2 0.9 1.2 1.7 2.3 2.6 3.5 5.7 6.9 12.3 13.4 19.7 18.7 3.1 2.2 6.4 4.4 9.7 6.3 1.1 0.5 2.6 0.4 3.5-0.8 0.9-0.9 0.9-2.3 0.2-3.4z"/><path fill-rule="evenodd" class="a" d="m194 415.3c-0.2-0.8-0.2-1.3-0.3-2.1-1.5-9.5-1.7-19.5-0.8-29.1 0.2-1.4 0.4-2.9 0.8-4.4v-0.2c1.1-13.2-3.5-26.8-13.7-37-2.6-2.5-5.1-4.6-8.1-6.4-0.9-0.6-1.8-0.7-2.9-0.2-0.9 0.6-1.5 1.5-1.5 2.6 0.2 11.8 0.6 17.5 3 30.4v0.2 0.1 0.2c0.1 1.3 0.3 2.8 0.5 4.3 1.3 8.8 3.9 17.6 7.7 25.9 2.8 6.3 6.1 12.3 10.2 17.9 0.7 1.1 2.2 1.4 3.5 0.9 1.1-0.6 1.8-1.9 1.6-3.1z"/><path fill-rule="evenodd" class="a" d="m213.2 437.2q-1.1 0.8-2.2 0.5c-0.8-0.2-1.5-0.4-2.3-0.4-1.1-0.3-2-1.1-2.2-2l-3.1-10.1c-1.3-4.2-2.2-8.7-2.9-13.1-3.4-21.1 2.4-35.9 7.9-55.2 0.2-1.1 0.9-1.8 2-2 1.1-0.4 2 0 2.8 0.7 2.4 2.6 4.4 5.4 6 8.5 7.2 12.3 8.1 26.7 3.7 39.2-0.2 0.2-0.2 0.2-0.2 0.2-0.5 1.4-1.1 2.7-1.6 4-3.5 8.9-5.7 18.2-6.8 27.6-0.2 1-0.6 1.7-1.1 2.1zm-21.4-5.2l0.2 0.2c-1.1-0.4-2.2-0.9-3.5-1.5l0.5-1.8c1 1.1 1.9 2 2.8 3.1z"/><path fill-rule="evenodd" class="a" d="m620.6 422.3c4.4-6.3 8.2-12.9 11.4-19.7 3.8-8.9 6.6-18.5 8.1-28q0.2-2.2 0.5-4.4c0 0 0 0 0.2-0.2 2.2-13.1 10.1-25.1 22.6-32.2 3-1.9 6.3-3.2 9.4-4.3 1.1-0.2 2.1 0 3 0.8 0.7 0.7 0.9 1.8 0.7 2.7-5.1 19.5-8.1 46.4-20 60.6v0.2c0 0-0.2 0-0.2 0.2-1 1.2-1.9 2.3-2.6 3.5-5.7 6.9-12.3 13.4-19.9 18.7-2.9 2.2-6.2 4.4-9.6 6.3-1.1 0.5-2.5 0.4-3.5-0.8-0.9-0.9-1.1-2.3-0.1-3.4z"/><path fill-rule="evenodd" class="a" d="m610.2 415.3c0-0.8 0.2-1.3 0.4-2.1 1.5-9.5 1.7-19.5 0.6-29.1q-0.3-2.2-0.6-4.4v-0.2c-1.1-13.2 3.5-26.8 13.6-37 2.4-2.5 5.2-4.6 8-6.4 0.9-0.6 2-0.7 2.9-0.2 0.9 0.6 1.5 1.5 1.5 2.6 0 11.8-0.4 17.5-2.8 30.4v0.2 0.1 0.2c-0.2 1.3-0.4 2.8-0.5 4.3-1.5 8.8-4.1 17.6-7.8 25.9-2.7 6.3-6 12.3-10.1 17.9-0.7 1.1-2.2 1.4-3.5 0.9-1.3-0.6-1.8-1.9-1.7-3.1z"/><path fill-rule="evenodd" class="a" d="m590 435.1c-1.1-9.4-3.3-18.7-6.8-27.6-0.6-1.3-1.1-2.6-1.7-4-0.2 0-0.2 0-0.2-0.2-4.4-12.5-3.6-26.9 3.5-39.2 1.9-3.1 3.9-5.9 6.3-8.5 0.6-0.7 1.7-1.1 2.8-0.7 0.9 0.2 1.6 0.9 2 2 5.5 19.3 11.2 34.1 7.9 55.2-0.7 4.4-1.8 8.9-3.1 13.1l-3 10.1c-0.3 0.9-1.1 1.7-2.2 2-0.7 0-1.5 0.2-2.2 0.4q-1.1 0.3-2.2-0.5c-0.7-0.4-1.1-1.1-1.1-2.1zm25.2-6.2l0.4 1.8c-1.1 0.6-2.2 1.1-3.5 1.5l0.4-0.2c0.9-1.1 1.8-2 2.7-3.1z"/><path fill-rule="evenodd" class="a" d="m388 523.1c-0.7 0.6-1.4 0.8-2.3 0.4-72.2-19.3-143.4-38.3-215.4-57.6-0.6-0.2-1-0.4-1.3-0.8l-17-16.9-0.9-0.9-55.9-56c-1-0.9-1.1-1.8-0.8-2.9 0.2-0.9 1.1-1.7 2-2 3.4-0.8 6.9-1.2 10.4-1.2 14.3 0 27.2 6.5 35.7 16.6 0.2 0.2 0.2 0.2 0.2 0.2 0.9 1.3 1.8 2.4 2.7 3.5 6.1 7.7 13.1 14.4 21 20.1 17.9 13 39.6 20.6 63.3 20.6 9.2 0 18.3-1.3 26.9-3.5 0.2 0 0.2 0 0.4 0 11.9-5 20.2-16.8 20.2-30.6 0-41.8-49.7-22.2-49.7-60.9 0-3.1 0.6-5.9 1.3-8.7 0.4-0.9 0.9-1.4 1.9-1.8 0.7-0.4 1.6-0.4 2.3 0.2l47.2 27 42.7 24.7c0 0.2 0 0.2 0 0.2 0.2 0 0.2 0 0.2 0l8.6 5c35.4 22.4 58.7 61.6 58.7 106.4 0 5.9-0.3 11.4-1.1 16.9-0.1 0.9-0.5 1.7-1.3 2zm26.9-2c-0.7-5.5-1.1-11-1.1-16.9 0-44.8 23.4-84 58.6-106.4 0.1 0 0.1 0 0.1 0l8.7-5c0 0 0.2 0 0.2-0.2l42.7-24.7 47.1-27c0.8-0.6 1.5-0.6 2.4-0.2 0.9 0.4 1.5 0.9 1.7 1.8 0.9 2.8 1.3 5.6 1.3 8.7 0 38.7-49.7 19.1-49.7 60.9 0 13.8 8.4 25.6 20.4 30.6 0 0 0.2 0 0.4 0 8.6 2.2 17.4 3.5 26.8 3.5 23.6 0 45.5-7.6 63.4-20.6 7.9-5.7 14.9-12.4 20.9-20.1 1-1.1 1.9-2.2 2.8-3.5 0 0 0 0 0-0.2 8.7-10.1 21.5-16.6 35.9-16.6 3.5 0 7 0.4 10.1 1.2 1.1 0.3 1.9 1.1 2.2 2 0.4 1.1 0 2-0.7 2.9l-56.1 56-0.8 0.9-16.9 16.9c-0.4 0.4-0.8 0.6-1.3 0.8-72 19.3-143.2 38.3-215.4 57.6-0.9 0.4-1.6 0.2-2.4-0.4-0.7-0.3-1.1-1.1-1.3-2z"/><path fill-rule="evenodd" class="a" d="m402 410.7c-193.4-195-74-262.6 0-157.4 74.2-105.2 193.7-37.6 0 157.4z"/><g clip-path="url(#cp2)"><path class="a" d="m659.4 297.3q0 0.9-0.2 1.8-0.1 0.8-0.5 1.6-0.3 0.8-0.8 1.5-0.5 0.8-1.1 1.4-0.6 0.6-1.3 1.1-0.7 0.4-1.5 0.8-0.8 0.3-1.7 0.5-0.8 0.2-1.7 0.2-0.9 0-1.7-0.2-0.9-0.2-1.7-0.5-0.8-0.4-1.5-0.8-0.7-0.5-1.3-1.1-0.7-0.6-1.1-1.4-0.5-0.7-0.9-1.5-0.3-0.8-0.5-1.6-0.1-0.9-0.1-1.8 0-0.8 0.1-1.7 0.2-0.8 0.5-1.6 0.4-0.8 0.9-1.6 0.4-0.7 1.1-1.3 0.6-0.6 1.3-1.1 0.7-0.5 1.5-0.8 0.8-0.3 1.7-0.5 0.8-0.2 1.7-0.2 0.9 0 1.7 0.2 0.9 0.2 1.7 0.5 0.8 0.3 1.5 0.8 0.7 0.5 1.3 1.1 0.6 0.6 1.1 1.3 0.5 0.8 0.8 1.6 0.4 0.8 0.5 1.6 0.2 0.9 0.2 1.7z"/></g><path class="b" d="m146.6 640.1h503.6"/><g clip-path="url(#cp3)"><path class="a" d="m400.5 222l2-3.1q8.5-14.1 16.5-20.1 9.2-7.6 25.2-11.2 33.6-5.6 54.6 10.7 7.7 5.2 15.9 19.3 7.1 13.3 8.4 30.4 2.2 26.1-14.7 55.5-6.9 14.4-40.6 49-31 29.8-67.4 59.9-92.7-77.9-103-95.5-22.5-26-23.1-60.3 4.3-56 44.5-67.2 23.1-6.2 44.9 2.5 17.7 8.1 36.8 30.1z"/></g><g clip-path="url(#cp4)"><path class="c" d="m491.1 193.4q12.8 30.5 13 53.1 0.1 9-1.6 18.2l-2.2 9.3q-5.7 18.7-17.3 36.5-11.7 17.7-26.4 32-7.2 7.1-14.7 12.8-4.5 4.2-20.6 12.8-23.8 11.7-58.8 12 16.8 14.5 37.9 32.3 36.4-30.1 67.4-59.9 33.7-34.6 40.6-49 16.9-29.4 14.7-55.5-1.3-17.1-8.4-30.4-8.2-14.1-16-19.4-3.7-2.7-7.6-4.8zm-65.8 187.3q0 0 0 0z"/></g><path class="a" d="m171.2 264.3l4.7 2.4-5.8 14.7-7.6-3.4-18.6-6.9 2.7-6.7 17.6 7.4 3 1 3.3-8.3z"/><path class="a" d="m181.5 242.3l0.7-0.1 4.5 2.8-8.4 16.6-7.3-4.2-17.8-8.6 8.5-16.8 0.6-0.1 4.5 2.8-3.4 6-2.1 4.3 5 2.6 2.1-4.1 1.9-4.1 0.7-0.1 4.4 2.7-2.3 4.5-1.9 3.7 2.1 1.2 3.2 1.5 2.1-4.1z"/><path class="a" d="m195.5 214.7l7.5 4.7-4.2 6.4-20-1.2-0.3 0.3 6.2 4.2 8.5 5.2-3.6 5.4-6.7-4.9-16.8-10.6 4.2-6.4 20.1 1.2 0.3-0.4-14.5-9.3 3.3-5.6z"/><path class="a" d="m194.2 185.6q4-4.7 8.8-5 4.6-0.2 9.5 3.9 5.6 4.9 6.2 10.4 0.6 5.5-3.9 10.7-2.7 3.1-6.9 7.5l-6.1-5.7-15.3-12.7h0.1zm17.3 15.6q3.8-4.4-2.6-10-3.8-3.2-6.3-3.6-2.5-0.3-4.6 2.1-1.5 1.7-2.6 3.3l10.1 9 2.8 2.4q1.9-1.7 3.2-3.2z"/><path class="a" d=""/><path class="a" d="m252.2 169.2l-5.4 4.6-3.2-2.6-1.4-0.9-3.9 3.2-3.2 2.9 0.4 1.1 2.3 3.9-5.2 4.5-11.4-27.3 6.5-5.5zm-14.5-2.1l-9-6.4-0.4 0.3 4.5 10.2 2.5-2z"/><path class="a" d="m280 140.5l5 7.5-6.1 3.7-4-7.3-1.5-2.4-4.9 2.9-4.2 2.7 1 1.8 4.9 7.6-6 3.7-4.1-7.3-10.6-16.8 6.2-3.7 5.6 9.7 4.6-2.7 4.4-2.8-6-9.5 6.1-3.7z"/><path class="a" d="m312.9 135.1l-6.6 2.9-2.3-3.4-1-1.3-4.7 2-3.9 2 0.1 1.1 1.2 4.4-6.4 2.9-3.3-29.4 7.8-3.5zm-13.4-6.1l-6.9-8.6-0.4 0.2 1.4 11.1 3-1.3z"/><path class="a" d="m338.3 117.6l2.9 8.4-7.3 2.3-14.8-13.7-0.4 0.1 2.2 7.2 3.2 9.4-6.1 1.9-2.1-8-6.3-18.9 7.3-2.3 14.8 13.7 0.4-0.1-5.2-16.3 6.1-2.4z"/><path class="a" d="m355.8 94.2q6.1-1 9.9 1.7 3.8 2.8 4.9 9.1 1.3 7.4-1.7 12-3 4.6-9.9 5.8-4 0.7-10 1.4h-0.1l-1-8.3-3.9-19.4 0.1-0.1zm3.6 23.1q5.7-1 4.2-9.4-0.8-4.9-2.6-6.8-1.7-1.8-4.8-1.3-2.3 0.4-4.2 0.9l2.1 13.4 0.7 3.6q2.6-0.1 4.6-0.4z"/><path class="a" d=""/><path class="a" d="m396.6 104.7l0.2 4.3-10.2 2.1-0.6-0.5-0.2-4.3 10.3-2z"/><path class="a" d=""/><path class="a" d="m426.6 90.9q4 0.3 7.1 2l-1.7 5.7-0.5 0.2q-1.1-0.9-2.6-1.4-1.5-0.6-3-0.7-3.1-0.3-4.8 1.6-1.6 1.8-1.9 6.1-0.7 9.1 5.8 9.6 1.4 0.1 3.1-0.2 1.6-0.3 2.9-0.9l0.6 0.4-1 5.8q-3.1 1-6.6 0.7-6.6-0.5-9.7-4.4-3.2-3.9-2.7-10.8 0.5-7 4.4-10.6 3.9-3.5 10.6-3.1z"/><path class="a" d="m462.5 116.2l-1.4 8.9-6.9-1.3 1.8-8.1 0.5-2.8-5.5-1.1-5-0.8-0.4 2-1.4 8.9-7-1.3 1.9-8.1 3.3-19.6 7.1 1.4-2.3 10.9 5.2 1.1 5.1 0.9 1.9-11.1 7.1 1.4z"/><path class="a" d="m490.5 134.2l-6.8-2.2 0.5-4.1 0.1-1.7-4.8-1.6-4.2-1.2-0.6 1-2.1 4-6.7-2.1 17.3-24.1 8.1 2.6zm-5.9-13.4l0.6-11-0.4-0.2-6.4 9.2 3.1 1.1z"/><path class="a" d="m521.2 138.1l-3.5 8.2-7-3.2-1.8-20-0.4-0.2-3.2 6.8-3.9 9.1-5.8-2.7 3.8-7.3 8-18.2 6.9 3.2 1.8 20 0.4 0.2 7-15.7 6.1 2.4z"/><path class="a" d="m550.9 132.9q4 2.5 6.1 5.6l-4.6 4.5-0.5-0.3q-1.2-2.1-2.4-3.4-1.1-1.3-2.7-2.3-2-1.2-3.7-1.2-1.6 0-3.2 1.3-1.6 1.3-3.4 4.2-1.8 2.8-2.2 4.8-0.5 1.9 0.3 3.4 0.8 1.5 2.9 2.8 1 0.6 2.6 1.1l1.1-1.7 2.3-3.9 5.8 3-2.1 3.2-3.8 6.2q-5.4-1.2-9.3-3.6-5.7-3.5-6.7-8.4-0.9-4.8 2.6-10.5 3.9-6.3 9.3-7.5 5.3-1.2 11.6 2.7z"/><path class="a" d="m566.4 172.2v0.7l-3.6 3.8-14.7-11.4 5.5-6.3 11.8-15.9 14.9 11.6v0.6l-3.6 3.9-5.2-4.5-3.9-2.9-3.5 4.4 3.6 2.8 3.7 2.7v0.7l-3.5 3.9-3.9-3.2-3.4-2.6-1.5 1.9-2.1 2.8 3.7 2.9z"/><path class="a" d=""/><path class="a" d="m590.1 203.4l-5-5.2 2.3-3.3 0.9-1.4-3.4-3.7-3.1-3.1-1.1 0.5-3.8 2.6-4.8-5 26.6-13 5.9 6.1zm1.2-14.6l5.8-9.4-0.3-0.3-10 5 2.2 2.4z"/><path class="a" d=""/><path class="a" d="m612.9 224.8l-4.5 2.7-9.4-12.8 7-4.6 15.7-12 4.3 5.8-15.7 11-2.5 2 5.3 7.2z"/><path class="a" d="m622.7 233.5l-7.5 5-3.8-6.1 7.3-4 16.7-10.8 3.8 6.2z"/><path class="a" d="m642.9 241.7l-5.9 2.9 1.6 3.2 2.4 4.3-0.3 0.5-4.8 2.1-2.4-4.8-1.4-2.8-1.4 0.7-7.9 4.3-3.3-6.3 7.6-3.5 17.4-9.4 8.2 15.6-0.3 0.6-4.9 2-2.9-6.2z"/><path class="a" d="m641.9 280.9l-0.4 0.6-5 1.6-7-17.3 7.9-2.7 18.3-7.8 7 17.5-0.3 0.5-5.1 1.6-2.3-6.5-1.8-4.4-5.3 2 1.7 4.2 1.9 4.2-0.4 0.6-5 1.6-1.7-4.7-1.6-4-2.3 0.9-3.2 1.4 1.7 4.3z"/><path class="a" d="m165.7 692.3v-30.5h-14.3v-6.2h35.9v6.2h-14.2v30.5z"/><path class="a" d="m205.9 692.3v-36.7h7.3v15.2h19.8v-15.2h7.3v36.7h-7.3v-15.2h-19.8v15.2z"/><path class="a" d="m261.9 692.3v-36.7h29.4v6.2h-22.4v9.2h21.5v6h-21.5v9.1h22.4v6.2z"/><path class="a" d=""/><path class="a" d="m358.4 693.2q-4.3 0-7.9-1.4-3.6-1.5-6.2-4.1-2.6-2.6-4.1-6.1-1.4-3.6-1.4-7.7 0-4.3 1.4-7.8 1.5-3.5 4.1-6.1 2.6-2.5 6.2-4 3.6-1.4 7.9-1.4 3.5 0 7 1.2 3.4 1.1 6.2 3.7 2.7 2.5 4.2 6.8l-6 2.1q-1.2-2.9-3.1-4.4-1.9-1.6-4-2.3-2.2-0.7-4.3-0.7-3.6 0-6.3 1.7-2.8 1.6-4.3 4.5-1.5 2.9-1.5 6.7 0 3.7 1.5 6.6 1.5 3 4.3 4.7 2.7 1.7 6.3 1.7 2.1 0 4.3-0.7 2.1-0.7 4-2.5 1.9-1.7 3.1-4.6l6.3 2q-1.8 4.5-4.6 7.1-2.7 2.7-6.1 3.8-3.4 1.2-7 1.2z"/><path class="a" d="m394.7 692.3v-36.7h7.3v15.2h19.8v-15.2h7.3v36.7h-7.3v-15.2h-19.8v15.2z"/><path class="a" d="m446.9 692.3l18.8-36.9h6.3l18.7 36.9h-8.1l-4.5-8.8h-18.8l-4.5 8.8zm15.3-14.9h12.8l-3.7-7.9-2.5-6.8-2.7 6.9z"/><path class="a" d="m508.4 692.3v-36.7h6.5l19 22.1 4.1 5.7h0.1l-0.6-7v-20.8h7v36.7h-7.1l-19.1-22.6-3.2-5.1-0.3 0.1 0.7 5.8v21.8z"/><path class="a" d="m583.8 693.1q-5.7 0-10.1-2.4-4.4-2.4-6.9-6.7-2.6-4.3-2.6-9.9 0-4.2 1.5-7.8 1.4-3.5 4-6.1 2.7-2.6 6.3-4 3.5-1.5 7.8-1.5 3.4 0 6.7 1.1 3.3 1 5.9 3.4 2.7 2.3 4.3 6.2l-6.1 2q-1.2-2.4-3-3.8-1.8-1.4-3.8-1.9-2-0.5-4-0.5-3.6 0-6.4 1.7-2.7 1.6-4.2 4.5-1.6 2.9-1.6 6.6 0 3.7 1.6 6.6 1.5 2.9 4.2 4.5 2.8 1.7 6.4 1.7 2 0 4.1-0.4 2.2-0.5 4-1.6 1.8-1.1 2.7-3v-4.6h-13v-5.9h19.5v11.7q-1.5 3.8-4.3 6-2.7 2.2-6.1 3.1-3.4 1-6.9 1z"/><path class="a" d="m622.3 692.3v-36.7h29.4v6.2h-22.4v9.2h21.5v6h-21.5v9.1h22.4v6.2z"/></svg>